<svg xmlns="http://www.w3.org/2000/svg" width="16" height="16" viewBox="0 0 16 16"><title>16px / 编辑器 / align-none</title><g fill="none" fill-rule="evenodd"><path d="M0 0h16v16H0z"/><path fill="#4B5563" d="M13.25 12.5a.75.75 0 1 1 0 1.5H2.75a.75.75 0 1 1 0-1.5h10.5zm0-3.5a.75.75 0 1 1 0 1.5H2.75a.75.75 0 1 1 0-1.5h10.5zm0-3.5a.75.75 0 1 1 0 1.5H2.75a.75.75 0 0 1 0-1.5h10.5zm0-3.5a.75.75 0 1 1 0 1.5H2.75a.75.75 0 0 1 0-1.5h10.5z"/><path fill="#4B5563" fill-rule="nonzero" stroke="#FFF" stroke-width=".6" d="M11.779.18l1.766 1.135L4.221 15.82l-1.766-1.135L11.779.18z"/></g></svg>