<svg xmlns="http://www.w3.org/2000/svg" width="16" height="16" viewBox="0 0 16 16"><title>16px / 编辑器 / cut</title><g fill="none" fill-rule="evenodd"><path d="M0 0h16v16H0z"/><path fill="#4B5563" d="M12.655 10.063c.499.508.777 1.093.835 1.756.057.662-.123 1.206-.54 1.631-.18.183-.392.32-.633.413a2.11 2.11 0 0 1-.755.137c-.328 0-.662-.073-1.001-.219a3.038 3.038 0 0 1-.94-.644 2.916 2.916 0 0 1-.7-1.118c-.14-.413-.18-.81-.123-1.194L8 10l-.798.825c.057.383.016.781-.123 1.194-.14.412-.373.785-.7 1.118-.287.284-.6.498-.94.644-.34.146-.673.219-1 .219a2.11 2.11 0 0 1-.756-.137 1.743 1.743 0 0 1-.632-.413c-.418-.425-.598-.969-.54-1.631.057-.663.335-1.248.834-1.757.279-.283.59-.497.934-.643A2.57 2.57 0 0 1 5.286 9.2h.356l.786-.8-3.132-3.2a1.912 1.912 0 0 1-.442-.725 2.652 2.652 0 0 1 0-1.75c.098-.283.246-.525.442-.725L8 6.8 12.704 2c.196.2.344.442.442.725a2.652 2.652 0 0 1 0 1.75 1.912 1.912 0 0 1-.442.725L9.572 8.4l.786.8h.356c.328 0 .663.073 1.007.219.344.146.655.36.934.643zm-6.608 1.712c.041-.1.074-.202.099-.306.024-.104.036-.207.036-.306a1.24 1.24 0 0 0-.049-.32.75.75 0 0 0-.196-.33.732.732 0 0 0-.326-.2 1.213 1.213 0 0 0-.325-.05c-.098 0-.197.012-.295.037a1.918 1.918 0 0 0-.909.525 1.883 1.883 0 0 0-.405.612c-.04.1-.074.2-.098.3-.025.1-.037.2-.037.3 0 .092.016.198.05.32a.75.75 0 0 0 .196.33c.098.1.206.167.325.2.119.034.227.05.325.05.09 0 .187-.012.29-.037a1.72 1.72 0 0 0 .62-.281 2.2 2.2 0 0 0 .282-.244c.09-.083.17-.177.24-.281.069-.104.128-.21.177-.319zM8 9.537c.303 0 .563-.11.78-.33.217-.222.325-.49.325-.807 0-.308-.108-.573-.325-.794A1.055 1.055 0 0 0 8 7.275c-.303 0-.563.11-.78.331-.217.221-.325.486-.325.794 0 .317.108.585.325.806.217.221.477.332.78.332zm4.212 3.15a.75.75 0 0 0 .197-.33c.033-.122.049-.228.049-.32 0-.1-.012-.2-.037-.3a2.027 2.027 0 0 0-.27-.625 2 2 0 0 0-.847-.713 2.049 2.049 0 0 0-.295-.099 1.191 1.191 0 0 0-.295-.038c-.098 0-.207.017-.325.05a.732.732 0 0 0-.326.2.75.75 0 0 0-.196.332 1.24 1.24 0 0 0-.05.319c0 .1.013.202.037.306.025.104.058.206.099.306.049.108.108.215.178.319.07.104.15.198.24.281a2.2 2.2 0 0 0 .282.244 1.72 1.72 0 0 0 .909.319c.098 0 .206-.017.325-.05a.732.732 0 0 0 .325-.2z"/></g></svg>