<svg xmlns="http://www.w3.org/2000/svg" width="16" height="16" viewBox="0 0 16 16"><title>16px / 编辑器 / emoji</title><g fill="none" fill-rule="evenodd"><path d="M0 0h16v16H0z"/><path fill="#4B5563" d="M8 1.25a6.75 6.75 0 1 1 0 13.5 6.75 6.75 0 0 1 0-13.5zm0 1.5a5.25 5.25 0 1 0 0 10.5 5.25 5.25 0 0 0 0-10.5zM6.52 9.677l.05.088c.036.07.142.22.316.374.29.259.652.411 1.114.411a1.61 1.61 0 0 0 1.114-.41 1.64 1.64 0 0 0 .285-.324l.03-.051a.75.75 0 1 1 1.342.67c-.115.23-.327.53-.66.826-.553.491-1.26.789-2.111.789-.85 0-1.558-.298-2.11-.79a2.865 2.865 0 0 1-.66-.825.75.75 0 0 1 1.29-.758zM5.9 5.45a.75.75 0 0 1 .743.648l.007.102v1.2a.75.75 0 0 1-1.493.102L5.15 7.4V6.2a.75.75 0 0 1 .75-.75zm4.8.6a.75.75 0 0 1 .102 1.493l-.102.007H9.5a.75.75 0 0 1-.102-1.493L9.5 6.05h1.2z"/></g></svg>