<svg xmlns="http://www.w3.org/2000/svg" width="16" height="16" viewBox="0 0 16 16"><title>16px / 编辑器 / format-painter</title><g fill="none" fill-rule="evenodd"><path fill="#4B5563" d="M11.796 6a.99.99 0 0 1-.98 1H2.98A.99.99 0 0 1 2 6V3c0-.552.439-1 .98-1h7.836a.99.99 0 0 1 .98 1v.75h1.273c.478 0 .871.367.925.84L14 4.7v3.6c0 .487-.36.889-.822.944l-.109.006H8.612V10h.245a.99.99 0 0 1 .98 1v3a.99.99 0 0 1-.98 1H6.898a.99.99 0 0 1-.98-1v-3c0-.552.439-1 .98-1h.245V8.7c0-.487.36-.889.822-.944l.108-.006h4.458v-2.5h-.735V6zm-3.429 5.5h-.98v2h.98v-2zm1.96-8H3.469v2h6.858v-2z"/><path d="M0 0h16v16H0z"/></g></svg>