<svg xmlns="http://www.w3.org/2000/svg" width="16" height="16" viewBox="0 0 16 16"><title>16px / 编辑器 / fullscreen</title><g fill="none" fill-rule="evenodd"><path d="M0 0h16v16H0z"/><path fill="#4B5563" d="M6.53 9.47a.75.75 0 0 1 .073.976l-.073.084-2.22 2.22H5.5l.102.007A.75.75 0 0 1 5.5 14.25H2.472a.754.754 0 0 1-.046-.004l-.028-.003a.748.748 0 0 1-.499-.294l.07.081a.753.753 0 0 1-.219-.53v-3l.007-.102A.75.75 0 0 1 2.5 9.75l.102.007a.75.75 0 0 1 .648.743v1.188L5.47 9.47a.75.75 0 0 1 1.06 0zm6.97.28a.75.75 0 0 1 .743.648l.007.102v3a.75.75 0 0 1-.648.743l-.102.007h-3a.75.75 0 0 1-.102-1.493l.102-.007h2.25V10.5a.75.75 0 0 1 .648-.743l.102-.007zm0-8h.017c.02 0 .04.002.06.004l.025.003a.748.748 0 0 1 .499.294l-.07-.081a.753.753 0 0 1 .219.53v3l-.007.102a.75.75 0 0 1-.743.648l-.102-.007a.75.75 0 0 1-.648-.743V4.31l-2.22 2.22a.75.75 0 0 1-1.133-.976l.073-.084 2.218-2.22H10.5l-.102-.007A.75.75 0 0 1 10.5 1.75h3zm-8 0a.75.75 0 0 1 .102 1.493L5.5 3.25H3.25V5.5a.75.75 0 0 1-.648.743L2.5 6.25a.75.75 0 0 1-.743-.648L1.75 5.5v-3a.75.75 0 0 1 .648-.743L2.5 1.75h3z"/></g></svg>