<svg xmlns="http://www.w3.org/2000/svg" width="16" height="16" viewBox="0 0 16 16"><title>16px / 编辑器 / gallery</title><g fill="none" fill-rule="evenodd"><path d="M0 0h16v16H0z"/><path fill="#4B5563" d="M13.5 3.75a.75.75 0 0 1 .743.648l.007.102v8a1.75 1.75 0 0 1-1.606 1.744l-.144.006h-7a.75.75 0 0 1-.102-1.493l.102-.007h7a.25.25 0 0 0 .243-.193l.007-.057v-8a.75.75 0 0 1 .75-.75zM11.167 2c.46 0 .833.373.833.833v8.334c0 .46-.373.833-.833.833H2.833A.833.833 0 0 1 2 11.167V2.833c0-.46.373-.833.833-.833h8.334zm-.417 1.25h-7.5v7.5h7.5v-7.5zm-2.5 2.5L9.5 7v2.5h-5V7.833L5.333 7l1.25.417L8.25 5.75zM5 4a1 1 0 1 1 0 2 1 1 0 0 1 0-2z"/></g></svg>