<svg xmlns="http://www.w3.org/2000/svg" width="16" height="16" viewBox="0 0 16 16"><title>16px / 编辑器 / image</title><g fill="none" fill-rule="evenodd"><path d="M0 0h16v16H0z"/><path fill="#4B5563" d="M13.5 1.5a1 1 0 0 1 1 1v11a1 1 0 0 1-1 1h-11a1 1 0 0 1-1-1v-11a1 1 0 0 1 1-1h11zM6.072 9.731L3 12.802V13h2.861l1.74-1.739-1.53-1.53zm5.279-.381L7.7 13H13v-2l-1.65-1.65zM13 3H3v7.962l2.612-2.61a.65.65 0 0 1 .838-.068l.08.068 1.99 1.989 2.37-2.37a.65.65 0 0 1 .84-.068l.08.068L13 9.161V3zM6.5 4a1.5 1.5 0 1 1 0 3 1.5 1.5 0 0 1 0-3z"/></g></svg>