<svg xmlns="http://www.w3.org/2000/svg" width="16" height="16" viewBox="0 0 16 16"><title>16px / 编辑器 / indent</title><g fill="none" fill-rule="evenodd"><path d="M0 0h16v16H0z"/><path fill="#4B5563" d="M13.25 11.75a.75.75 0 1 1 0 1.5h-9.5a.75.75 0 1 1 0-1.5h9.5zm0-3a.75.75 0 0 1 .102 1.493l-.102.007h-5.5a.75.75 0 0 1-.102-1.493l.102-.007h5.5zM2.3 6.217a.3.3 0 0 1 .149.04L5.044 7.74a.3.3 0 0 1 0 .52L2.45 9.744A.3.3 0 0 1 2 9.483V6.517a.3.3 0 0 1 .3-.3zm10.95-.467a.75.75 0 0 1 .102 1.493l-.102.007h-5.5a.75.75 0 0 1-.102-1.493l.102-.007h5.5zm0-3a.75.75 0 1 1 0 1.5h-9.5a.75.75 0 0 1 0-1.5h9.5z"/></g></svg>