<svg xmlns="http://www.w3.org/2000/svg" width="16" height="16" viewBox="0 0 16 16"><title>16px / 编辑器 / insert-time</title><g fill="none" fill-rule="evenodd"><path fill="#4B5563" d="M10.5 1.75a.75.75 0 0 1 .743.648l.007.102V3H13a1 1 0 0 1 1 1v9a1 1 0 0 1-1 1H3a1 1 0 0 1-1-1V4a1 1 0 0 1 1-1h1.75v-.5a.75.75 0 0 1 1.493-.102l.007.102V3h3.5v-.5a.75.75 0 0 1 .75-.75zm-7 6v4.75h9V7.75h-9zm7.5 1.5a.75.75 0 0 1 .102 1.493L11 10.75H9.5a.75.75 0 0 1-.102-1.493L9.5 9.25H11zm-4.5 0a.75.75 0 0 1 .102 1.493l-.102.007H5a.75.75 0 0 1-.102-1.493L5 9.25h1.5zm-3-3h9V4.5h-1.25V5a.75.75 0 0 1-1.493.102L9.75 5v-.5h-3.5V5a.75.75 0 0 1-1.493.102L4.75 5v-.5H3.5v1.75z"/><path d="M0 0h16v16H0z"/></g></svg>