<svg xmlns="http://www.w3.org/2000/svg" width="16" height="16" viewBox="0 0 16 16"><title>16px / 编辑器 / insert-character</title><g fill="none" fill-rule="evenodd"><path d="M0 0h16v16H0z"/><path fill="#4B5563" d="M10.25 12.5h3L14 11v3H9.5v-2.508a3.947 3.947 0 0 0 1.055-.668 4.47 4.47 0 0 0 .832-.978 4.65 4.65 0 0 0 .539-1.213c.133-.438.199-.899.199-1.383 0-.625-.11-1.21-.328-1.758a4.37 4.37 0 0 0-.879-1.424 4.234 4.234 0 0 0-1.313-.955A3.844 3.844 0 0 0 8 2.773c-.57 0-1.105.114-1.605.34-.5.235-.938.553-1.313.955a4.37 4.37 0 0 0-.879 1.424 4.689 4.689 0 0 0-.328 1.758c0 .484.066.945.2 1.383.124.437.304.842.538 1.213.235.37.512.697.832.978.32.281.672.504 1.055.668V14H2v-3l.75 1.5h3v-.387a6.417 6.417 0 0 1-1.512-.773 5.73 5.73 0 0 1-1.19-1.125 4.905 4.905 0 0 1-.767-1.383A4.468 4.468 0 0 1 2 7.25c0-.727.156-1.406.469-2.04.312-.64.74-1.198 1.283-1.675A6.097 6.097 0 0 1 5.668 2.41 6.566 6.566 0 0 1 8 2c.828 0 1.605.137 2.332.41a6.097 6.097 0 0 1 1.916 1.125c.543.477.97 1.035 1.283 1.676.313.633.469 1.312.469 2.039 0 .555-.094 1.082-.281 1.582-.18.5-.436.961-.768 1.383a5.73 5.73 0 0 1-1.19 1.125c-.46.32-.964.578-1.511.773v.387z"/></g></svg>