<svg xmlns="http://www.w3.org/2000/svg" width="16" height="16" viewBox="0 0 16 16"><title>16px / 编辑器 / line-height</title><g fill="none" fill-rule="evenodd"><path d="M0 0h16v16H0z"/><path fill="#4B5563" d="M4.858 1.84l.092.06 2 1.5a.75.75 0 0 1-.806 1.26L6.05 4.6l-.8-.6v8l.8-.6.094-.06a.75.75 0 0 1 .89 1.187l-.084.073-2 1.5-.092.06a.75.75 0 0 1-.716 0l-.092-.06-2-1.5-.084-.073a.75.75 0 0 1-.126-.883l.06-.094.073-.084a.75.75 0 0 1 .883-.126l.094.06.8.6V4l-.8.6a.75.75 0 0 1-.977-.066L1.9 4.45a.75.75 0 0 1 .066-.977L2.05 3.4l2-1.5a.75.75 0 0 1 .808-.06zM11.25 12a.75.75 0 1 1 0 1.5h-2.5a.75.75 0 1 1 0-1.5h2.5zm2-3a.75.75 0 1 1 0 1.5h-4.5a.75.75 0 1 1 0-1.5h4.5zm-2-3.5a.75.75 0 1 1 0 1.5h-2.5a.75.75 0 0 1 0-1.5h2.5zm2-3a.75.75 0 1 1 0 1.5h-4.5a.75.75 0 0 1 0-1.5h4.5z"/></g></svg>