<svg xmlns="http://www.w3.org/2000/svg" width="16" height="16" viewBox="0 0 16 16"><title>16px / 编辑器 / link</title><g fill="none" fill-rule="evenodd"><path d="M0 0h16v16H0z"/><path fill="#4B5563" d="M7.47 4.641a1.75 1.75 0 0 0-.114 2.35l.114.125.176.177-.353.353-.177-.176a1.75 1.75 0 0 0-2.37-.098l-.105.098L1.52 10.59a1.75 1.75 0 0 0-.114 2.35l.114.125 1.414 1.414a1.75 1.75 0 0 0 2.35.114l.125-.114L8.53 11.36a1.75 1.75 0 0 0 .114-2.35l-.114-.125-.176-.177.353-.353.177.176a1.75 1.75 0 0 0 2.37.098l.105-.098L14.48 5.41a1.75 1.75 0 0 0 .114-2.35l-.114-.125-1.414-1.414a1.75 1.75 0 0 0-2.35-.114l-.125.114L7.47 4.64zm1.06 1.06l3.122-3.12a.25.25 0 0 1 .3-.041l.053.04 1.414 1.415a.25.25 0 0 1 .041.3l-.04.053-3.122 3.122a.25.25 0 0 1-.3.04l-.053-.04-.177-.177.884-.884a.75.75 0 0 0-.984-1.128l-.077.067-.884.884-.177-.177a.25.25 0 0 1-.036-.308l.036-.045zm-5.95 5.95l3.122-3.12a.25.25 0 0 1 .3-.041l.053.04.177.177-.884.884a.75.75 0 0 0 .984 1.128l.077-.067.884-.884.177.177a.25.25 0 0 1 .036.308l-.036.045-3.122 3.121a.25.25 0 0 1-.3.041l-.053-.04-1.414-1.415a.25.25 0 0 1-.041-.3l.04-.053z"/></g></svg>