<svg xmlns="http://www.w3.org/2000/svg" width="16" height="16" viewBox="0 0 16 16"><title>16px / 编辑器 / ordered-list</title><g fill="none" fill-rule="evenodd"><path d="M0 0h16v16H0z"/><path fill="#4B5563" d="M7.032 2.4h6.194c.427 0 .774.358.774.8 0 .442-.347.8-.774.8H7.032a.787.787 0 01-.774-.8c0-.442.347-.8.774-.8zm0 4.8h6.194c.427 0 .774.358.774.8 0 .442-.347.8-.774.8H7.032a.787.787 0 01-.774-.8c0-.442.347-.8.774-.8zm0 4.8h6.194c.427 0 .774.358.774.8 0 .442-.347.8-.774.8H7.032a.787.787 0 01-.774-.8c0-.442.347-.8.774-.8zM3.867 1v3.281a.468.468 0 11-.934 0V1.938h-.466a.468.468 0 010-.938h1.4zM2.933 8.747c0 .11.09.199.199.199h1.201a.468.468 0 010 .937H2.852A.854.854 0 012 9.028v-.206c0-.39.241-.74.606-.878l1.06-.4a.31.31 0 00.2-.289.204.204 0 00-.203-.205l-1.17.052A.473.473 0 012 6.63c0-.274.22-.496.493-.496h1.455c.47 0 .852.383.852.856v.206c0 .39-.241.74-.606.877l-1.075.405a.287.287 0 00-.186.27zM4.8 12.188v1.874a.935.935 0 01-.933.938H2.469a.47.47 0 010-.942h1.12a.278.278 0 000-.558H2.373a.374.374 0 010-.75H3.59a.279.279 0 000-.559h-1.12a.47.47 0 010-.941h1.398c.515 0 .933.42.933.938z"/></g></svg>