<svg xmlns="http://www.w3.org/2000/svg" width="16" height="16" viewBox="0 0 16 16"><title>16px / 编辑器 / outdent</title><g fill="none" fill-rule="evenodd"><path d="M0 0h16v16H0z"/><path fill="#4B5563" d="M13.25 11.75a.75.75 0 1 1 0 1.5h-9.5a.75.75 0 1 1 0-1.5h9.5zm0-3a.75.75 0 0 1 .102 1.493l-.102.007h-5.5a.75.75 0 0 1-.102-1.493l.102-.007h5.5zM4.895 6.217a.3.3 0 0 1 .292.231l.008.069v2.966a.3.3 0 0 1-.385.288l-.063-.027L2.15 8.26a.3.3 0 0 1-.056-.48l.056-.04 2.596-1.484a.3.3 0 0 1 .148-.039zm8.355-.467a.75.75 0 0 1 .102 1.493l-.102.007h-5.5a.75.75 0 0 1-.102-1.493l.102-.007h5.5zm0-3a.75.75 0 1 1 0 1.5h-9.5a.75.75 0 0 1 0-1.5h9.5z"/></g></svg>