<svg xmlns="http://www.w3.org/2000/svg" width="16" height="16" viewBox="0 0 16 16"><title>16px / 编辑器 / page-break</title><g fill="none" fill-rule="evenodd"><path d="M0 0h16v16H0z"/><path fill="#4B5563" d="M12 9.75l.102.007a.75.75 0 0 1 .648.743v3l-.007.102a.75.75 0 0 1-.743.648l-.102-.007a.75.75 0 0 1-.648-.743v-2.25h-6.5v2.25l-.007.102A.75.75 0 0 1 3.25 13.5v-3l.007-.102A.75.75 0 0 1 4 9.75h8zm-6-2.5v1.5H4v-1.5h2zm3 0v1.5H7v-1.5h2zm3 0v1.5h-2v-1.5h2zm2 0v1.5h-1v-1.5h1zm-11 0v1.5H2v-1.5h1zm9-5.5a.75.75 0 0 1 .743.648l.007.102v3a.75.75 0 0 1-.648.743L12 6.25H4a.75.75 0 0 1-.743-.648L3.25 5.5v-3a.75.75 0 0 1 1.493-.102l.007.102v2.25h6.5V2.5a.75.75 0 0 1 .648-.743L12 1.75z"/></g></svg>