<svg xmlns="http://www.w3.org/2000/svg" width="16" height="16" viewBox="0 0 16 16"><title>16px / 编辑器 / paste</title><g fill="none" fill-rule="evenodd"><path d="M0 0h16v16H0z"/><path fill="#4B5563" d="M13 7a1 1 0 0 1 1 1v6a1 1 0 0 1-1 1H8a1 1 0 0 1-1-1V8a1 1 0 0 1 1-1h5zM7.647 1c.918 0 1.694.588 1.99 1.4h2.245c.777 0 1.412.63 1.412 1.4V6h-1.412V3.8h-1.411v.7c0 .387-.316.7-.706.7H5.529a.703.703 0 0 1-.705-.7v-.7H3.412v9.1L5 12.899v1.4l-1.588.001A1.41 1.41 0 0 1 2 12.9V3.8c0-.77.635-1.4 1.412-1.4h2.244A2.124 2.124 0 0 1 7.647 1zM12.5 8.5h-4v5h4v-5zM7.647 2.4a.705.705 0 0 0-.706.7.705.705 0 0 0 1.412 0c0-.385-.318-.7-.706-.7z"/></g></svg>