<svg xmlns="http://www.w3.org/2000/svg" width="16" height="16" viewBox="0 0 16 16"><title>16px / 编辑器 / preview</title><g fill="none" fill-rule="evenodd"><path d="M0 0h16v16H0z"/><path fill="#4B5563" d="M1.82 8.369c.377.531.823 1.063 1.332 1.558 1.425 1.382 3.05 2.198 4.851 2.198 1.801 0 3.427-.816 4.851-2.198A11.264 11.264 0 0 0 14.438 8a11.264 11.264 0 0 0-1.583-1.927c-1.425-1.382-3.05-2.198-4.852-2.198-1.8 0-3.426.816-4.85 2.198A11.264 11.264 0 0 0 1.568 8c.069.107.153.23.251.369zM.085 7.683c.095-.172.271-.457.527-.818.424-.597.923-1.193 1.498-1.75C3.785 3.488 5.755 2.5 8.003 2.5c2.249 0 4.219.989 5.893 2.614a12.644 12.644 0 0 1 1.498 1.751c.257.36.433.646.527.818.11.199.11.435 0 .634-.094.172-.27.457-.527.818a12.644 12.644 0 0 1-1.498 1.75c-1.674 1.626-3.644 2.615-5.893 2.615-2.248 0-4.218-.989-5.893-2.614A12.644 12.644 0 0 1 .612 9.135a9.062 9.062 0 0 1-.527-.818.654.654 0 0 1 0-.634zM8.86 5.371c-.505.216-.857.696-.857 1.254 0 .76.652 1.375 1.455 1.375a1.46 1.46 0 0 0 1.326-.81c.084.256.128.528.128.81 0 1.519-1.302 2.75-2.909 2.75-1.606 0-2.909-1.231-2.909-2.75s1.303-2.75 2.91-2.75c.297 0 .585.042.856.121z"/></g></svg>