<svg xmlns="http://www.w3.org/2000/svg" width="16" height="16" viewBox="0 0 16 16"><title>16px / 编辑器 / quote</title><g fill="none" fill-rule="evenodd"><path d="M0 0h16v16H0z"/><path fill="#4B5563" d="M5.429 11h.504a.57.57 0 0 0 .51-.332L7.43 8.6v-3c0-.331-.256-.6-.572-.6H4.571C4.256 5 4 5.269 4 5.6V8c0 .331.256.6.571.6h1.143l-.76 1.595a.57.57 0 0 0 .238.746.51.51 0 0 0 .237.059zM10 11h.504a.57.57 0 0 0 .511-.332L12 8.6v-3c0-.331-.256-.6-.571-.6H9.143c-.316 0-.572.269-.572.6V8c0 .331.256.6.572.6h1.143l-.76 1.595a.57.57 0 0 0 .237.746A.51.51 0 0 0 10 11z"/></g></svg>