<svg xmlns="http://www.w3.org/2000/svg" width="16" height="16" viewBox="0 0 16 16"><title>16px / 编辑器 / remove-formatting</title><g fill="none" fill-rule="evenodd"><path d="M0 0h16v16H0z"/><path fill="#4B5563" d="M12.554 8.897a.75.75 0 0 1 .976 1.133l-1.219 1.22 1.22 1.22a.75.75 0 0 1-.977 1.133l-.084-.073-1.22-1.219-1.22 1.22-.084.072a.75.75 0 0 1-.976-1.133l1.219-1.22-1.22-1.22a.75.75 0 0 1 .977-1.133l.084.073 1.22 1.219 1.22-1.22.084-.072zM7 12.5a.5.5 0 0 1 .09.992L7 13.5H2a.5.5 0 0 1-.09-.992L2 12.5h5zm3.5-10.25a.75.75 0 0 1 .102 1.493l-.102.007H8.511L5.48 11.549A.776.776 0 0 1 4.5 12a.725.725 0 0 1-.436-.947l2.84-7.303H5a.75.75 0 0 1-.102-1.493L5 2.25h5.5z"/></g></svg>