<svg xmlns="http://www.w3.org/2000/svg" width="16" height="16" viewBox="0 0 16 16"><title>16px / 编辑器 / restore-draft</title><g fill="none" fill-rule="evenodd"><path d="M0 0h16v16H0z"/><path fill="#4B5563" d="M8.25 1.75a6.25 6.25 0 1 1-3.966 11.081.75.75 0 0 1 .953-1.159A4.75 4.75 0 1 0 3.606 7h.583a.3.3 0 0 1 .25.466L3 9.626a.3.3 0 0 1-.499 0l-1.44-2.16A.3.3 0 0 1 1.31 7h.77a6.252 6.252 0 0 1 6.17-5.25zm-.25 3a.75.75 0 0 1 .743.648l.007.102v2.689l1.28 1.28a.75.75 0 0 1 .073.977l-.073.084a.75.75 0 0 1-.976.073l-.084-.073-1.5-1.5a.75.75 0 0 1-.21-.412L7.25 8.5v-3A.75.75 0 0 1 8 4.75z"/></g></svg>