<svg xmlns="http://www.w3.org/2000/svg" width="16" height="16" viewBox="0 0 16 16"><title>16px / 编辑器 / strike-through</title><g fill="none" fill-rule="evenodd"><path d="M0 0h16v16H0z"/><path fill="#4B5563" d="M8.338 2c2.547 0 3.687 1.371 4.125 2.057L11.15 5c-.43-.57-.815-.955-1.153-1.156a3.44 3.44 0 0 0-1.734-.473c-2.363 0-2.45 1.495-2.45 1.805 0 1.383 1.553 1.717 2.8 1.967h5.512c.483 0 .875.384.875.857a.866.866 0 0 1-.875.857h-1.972c.4.528.476 1.061.484 1.484v.145C12.624 11.695 12.025 14 8.262 14c-2.537 0-3.978-1.255-4.637-2.204l1.347-.977c.299.505 1.357 1.783 3.241 1.783 1.39 0 2.126-.4 2.52-1.063.426-.72.323-1.793-.662-2.296a6.913 6.913 0 0 0-.935-.385H1.875A.866.866 0 0 1 1 8c0-.473.392-.857.875-.857h2.94c-.395-.432-.665-1.012-.665-1.8C4.15 2.857 6.494 2 8.338 2z"/></g></svg>