<svg xmlns="http://www.w3.org/2000/svg" width="16" height="16" viewBox="0 0 16 16"><title>16px / 编辑器 / subscript</title><g fill="none" fill-rule="evenodd"><path d="M0 0h16v16H0z"/><path fill="#4B5563" d="M7.812 6.79l3.6 3.665-1.106 1.126-3.6-3.665-3.6 3.665L2 10.455 5.6 6.79 2 3.126 3.106 2l3.6 3.665L10.306 2l1.106 1.126-3.6 3.664zM16 14h-3.827v-.798l.698-.64c.596-.518 1.035-.95 1.333-1.3.29-.352.44-.68.447-.99a.724.724 0 0 0-.212-.56c-.141-.127-.368-.223-.674-.223-.243 0-.455.048-.66.144l-.517.303-.353-.934c.212-.168.463-.311.769-.423a2.93 2.93 0 0 1 1.012-.192c.611.032 1.082.2 1.396.527.313.328.486.743.486 1.254a2.12 2.12 0 0 1-.423 1.237 6.337 6.337 0 0 1-.997 1.086l-.502.415 2.024.016V14z"/></g></svg>