<svg xmlns="http://www.w3.org/2000/svg" width="16" height="16" viewBox="0 0 16 16"><title>16px / 编辑器 / superscript</title><g fill="none" fill-rule="evenodd"><path d="M0 0h16v16H0z"/><path fill="#4B5563" d="M11.412 5.396l-3.6 3.729 3.6 3.73L10.306 14l-3.6-3.73-3.6 3.73L2 12.854l3.6-3.729L2 5.395 3.106 4.25l3.6 3.73 3.6-3.73 1.106 1.146zM16 6.688h-3.827v-.813l.698-.666c.596-.52 1.035-.959 1.333-1.325.29-.357.44-.69.447-.999a.733.733 0 0 0-.212-.569c-.141-.154-.368-.227-.674-.235a1.91 1.91 0 0 0-.66.138l-.517.317-.353-.951c.212-.179.463-.317.769-.43.306-.114.643-.155 1.012-.155.611 0 1.082.163 1.396.496.313.317.486.755.486 1.275a2.183 2.183 0 0 1-.423 1.26c-.267.39-.597.755-.997 1.105l-.502.422v.016H16v1.114z"/></g></svg>