<svg xmlns="http://www.w3.org/2000/svg" width="16" height="16" viewBox="0 0 16 16"><title>16px / 编辑器 / table-insert-row-after</title><g fill="none" fill-rule="evenodd"><path d="M0 0h16v16H0z"/><path fill="#4B5563" d="M8 8.882c.399 0 .728.296.773.676l.005.09v1.528h1.555c.43 0 .778.343.778.765a.77.77 0 0 1-.687.76l-.09.005H8.777v1.53A.771.771 0 0 1 8 15a.773.773 0 0 1-.773-.676l-.005-.089v-1.53H5.667a.771.771 0 0 1-.778-.764c0-.392.3-.715.687-.76l.09-.005h1.556V9.647c0-.422.348-.765.778-.765zm4.667 5.353a.771.771 0 0 1-.778-.764c0-.423.348-.765.778-.765h.777V8.118H2.556v4.588h.777c.43 0 .778.342.778.765a.771.771 0 0 1-.778.764H1.778A.771.771 0 0 1 1 13.471V3.529C1 2.685 1.696 2 2.556 2h10.888C14.304 2 15 2.685 15 3.53v9.94a.77.77 0 0 1-.687.76l-.09.005h-1.556zM7.222 3.53H2.556v3.06h4.666v-3.06zm6.222 0H8.778v3.06h4.666v-3.06z"/></g></svg>