<svg xmlns="http://www.w3.org/2000/svg" width="16" height="16" viewBox="0 0 16 16"><title>16px / 编辑器 / table-delete-table</title><g fill="none" fill-rule="evenodd"><path d="M0 0h16v16H0z"/><path fill="#4B5563" d="M13.444 2C14.304 2 15 2.672 15 3.5v9c0 .828-.696 1.5-1.556 1.5H2.556C1.696 14 1 13.328 1 12.5v-9C1 2.672 1.696 2 2.556 2h10.888zM2.556 3.5v9h10.888v-9H2.556z"/><path fill="#4B5563" d="M9.859 5.412l.824.795L8.824 8l1.859 1.793-.824.795L8 8.795l-1.859 1.793-.824-.795L7.176 8 5.317 6.207l.824-.795L8 7.205z"/></g></svg>