<svg xmlns="http://www.w3.org/2000/svg" width="16" height="16" viewBox="0 0 16 16"><title>16px / 编辑器 / table-insert-column-after</title><g fill="none" fill-rule="evenodd"><path d="M0 0h16v16H0z"/><path fill="#4B5563" d="M14.222 2c.43 0 .778.336.778.75v1.5c0 .414-.348.75-.778.75a.764.764 0 0 1-.778-.75V3.5H7.222v9h6.222v-.75c0-.414.349-.75.778-.75.43 0 .778.336.778.75v1.5a.76.76 0 0 1-.687.745l-.09.005H2.555C1.696 14 1 13.328 1 12.5v-9C1 2.672 1.696 2 2.556 2h11.666zM5.667 8.75H2.556v3.75h3.11V8.75zM11.11 5c.399 0 .728.29.773.663l.005.087v1.5h1.555c.43 0 .778.336.778.75a.76.76 0 0 1-.687.745l-.09.005h-1.556v1.5c0 .414-.348.75-.778.75a.768.768 0 0 1-.772-.663l-.006-.087v-1.5H8.778A.764.764 0 0 1 8 8c0-.385.3-.702.687-.745l.09-.005h1.556v-1.5c0-.414.349-.75.778-.75zM5.667 3.5H2.556v3.75h3.11V3.5z"/></g></svg>