<svg xmlns="http://www.w3.org/2000/svg" width="16" height="16" viewBox="0 0 16 16"><title>16px / 编辑器 / table-insert-column-before</title><g fill="none" fill-rule="evenodd"><path d="M0 0h16v16H0z"/><path fill="#4B5563" d="M13.444 2C14.304 2 15 2.672 15 3.5v9c0 .828-.696 1.5-1.556 1.5H1.778A.764.764 0 0 1 1 13.25v-1.5c0-.414.348-.75.778-.75.43 0 .778.336.778.75v.75h6.222v-9H2.556v.75c0 .414-.349.75-.778.75A.764.764 0 0 1 1 4.25v-1.5c0-.414.348-.75.778-.75h11.666zm0 6.75h-3.11v3.75h3.11V8.75zM4.89 5c.399 0 .728.29.772.663l.006.087v1.5h1.555c.43 0 .778.336.778.75a.76.76 0 0 1-.687.745l-.09.005H5.666v1.5c0 .414-.349.75-.778.75a.768.768 0 0 1-.773-.663l-.005-.087v-1.5H2.556A.764.764 0 0 1 1.778 8c0-.385.3-.702.687-.745l.09-.005h1.556v-1.5c0-.414.348-.75.778-.75zm8.555-1.5h-3.11v3.75h3.11V3.5z"/></g></svg>