<svg xmlns="http://www.w3.org/2000/svg" width="16" height="16" viewBox="0 0 16 16"><title>16px / 编辑器 / table-insert-row-above</title><g fill="none" fill-rule="evenodd"><path d="M0 0h16v16H0z"/><path fill="#4B5563" d="M3.333 1.765c.43 0 .778.342.778.764a.771.771 0 0 1-.778.765h-.777v4.588h10.888V3.294h-.777a.771.771 0 0 1-.778-.765c0-.422.348-.764.778-.764h1.555c.43 0 .778.342.778.764v9.942c0 .844-.696 1.529-1.556 1.529H2.556C1.696 14 1 13.315 1 12.47V2.53c0-.423.348-.765.778-.765h1.555zm3.89 7.647H2.555v3.059h4.666V9.41zm6.221 0H8.778v3.059h4.666V9.41zM8 1c.399 0 .728.295.773.676l.005.089v1.53h1.49c.43 0 .778.341.778.764a.77.77 0 0 1-.687.76l-.09.005H8.778v1.529A.771.771 0 0 1 8 7.118a.773.773 0 0 1-.773-.676l-.005-.09V4.825h-1.49a.771.771 0 0 1-.778-.765c0-.392.3-.716.687-.76l.09-.005h1.491v-1.53C7.222 1.343 7.57 1 8 1z"/></g></svg>