<svg xmlns="http://www.w3.org/2000/svg" width="16" height="16" viewBox="0 0 16 16"><title>16px / 编辑器 / table-delete-row</title><g fill="none" fill-rule="evenodd"><path d="M0 0h16v16H0z"/><path fill="#4B5563" d="M13.444 2C14.304 2 15 2.672 15 3.5v9c0 .828-.696 1.5-1.556 1.5H2.556C1.696 14 1 13.328 1 12.5v-9C1 2.672 1.696 2 2.556 2h10.888zm0 1.5H2.556v2.25H4.5v1.5H2.556v1.5H4.5v1.5H2.556v2.25h10.888v-2.25H11.5v-1.5h1.944v-1.5H11.5v-1.5h1.944V3.5zM9.808 4.842l.921.69L8.739 8l1.99 2.467-.92.69L8 8.917l-1.808 2.242-.921-.69L7.261 8 5.27 5.533l.92-.69L8 7.082l1.808-2.24z"/></g></svg>