<svg xmlns="http://www.w3.org/2000/svg" width="16" height="16" viewBox="0 0 16 16"><title>16px / 编辑器 / table-merge-cells</title><g fill="none" fill-rule="evenodd"><path d="M0 0h16v16H0z"/><path fill="#4B5563" d="M13.444 2C14.304 2 15 2.672 15 3.5v9c0 .828-.696 1.5-1.556 1.5H2.556C1.696 14 1 13.328 1 12.5v-9C1 2.672 1.696 2 2.556 2h10.888zM2.556 10.625V12.5h2.333v-1.875H2.556zm10.888-3.75h-7V12.5h7V6.875zm0-3.375h-3.11v1.875h3.11V3.5zm-8.555 0H2.556v1.875h2.333V3.5zm3.889 0H6.444v1.875h2.334V3.5zM2.556 9.125h2.333v-2.25H2.556v2.25z"/></g></svg>