<svg xmlns="http://www.w3.org/2000/svg" width="16" height="16" viewBox="0 0 16 16"><title>16px / 编辑器 / text-indent</title><g fill="none" fill-rule="evenodd"><path d="M0 0h16v16H0z"/><path fill="#4B5563" d="M13.25 11.283a.75.75 0 1 1 0 1.5H2.75a.75.75 0 1 1 0-1.5h10.5zM2.282 2.248c.049 0 .097.011.14.033l2.436 1.247c.135.07.182.224.105.345a.269.269 0 0 1-.105.094L2.421 5.214c-.135.07-.307.027-.384-.094A.232.232 0 0 1 2 4.995V2.5c0-.14.126-.252.282-.252zm10.86.785c.474 0 .858.336.858.75 0 .38-.322.694-.74.743l-.117.007H6.857c-.473 0-.857-.336-.857-.75 0-.38.322-.693.74-.743l.117-.007h6.286zm.108 3.75a.75.75 0 1 1 0 1.5H2.75a.75.75 0 0 1 0-1.5h10.5z"/></g></svg>