<svg xmlns="http://www.w3.org/2000/svg" width="16" height="16" viewBox="0 0 16 16"><title>16px / 编辑器 / unlink</title><g fill="none" fill-rule="evenodd"><path d="M0 0h16v16H0z"/><path fill="#4B5563" d="M10.716 1.406a1.75 1.75 0 0 1 2.35.114l1.414 1.414.114.125a1.75 1.75 0 0 1-.114 2.35L11.36 8.53l-.106.098a1.75 1.75 0 0 1-2.37-.098l-.176-.176-.353.353.176.177.114.125a1.75 1.75 0 0 1-.114 2.35L5.41 14.48l-.125.114a1.75 1.75 0 0 1-2.35-.114L1.52 13.066l-.114-.125a1.75 1.75 0 0 1 .114-2.35L4.64 7.47l.106-.098a1.75 1.75 0 0 1 2.37.098l.176.176.353-.353-.176-.177-.114-.125a1.75 1.75 0 0 1 .114-2.35L10.59 1.52zm-1.087 10.37a.46.46 0 0 1 .461.46v1.303a.46.46 0 0 1-.922 0v-1.303a.46.46 0 0 1 .461-.46zM6.002 8.49a.25.25 0 0 0-.3.04L2.58 11.652l-.041.053a.25.25 0 0 0 .04.3l1.415 1.414.053.041a.25.25 0 0 0 .3-.04l3.122-3.122.036-.045a.25.25 0 0 0-.036-.308l-.177-.177-.884.884-.077.067a.75.75 0 0 1-.984-1.128l.884-.884-.177-.177zm5.166 1.9l1.955 1.954a.46.46 0 0 1-.651.652l-1.955-1.955a.46.46 0 0 1 .651-.652zm2.371-1.222a.46.46 0 0 1 0 .922h-1.303a.46.46 0 1 1 0-.922h1.303zM11.952 2.54a.25.25 0 0 0-.3.04L8.53 5.703l-.036.045a.25.25 0 0 0 .036.308l.177.177.884-.884.077-.067a.75.75 0 0 1 .984 1.128l-.884.884.177.177.053.04a.25.25 0 0 0 .3-.04l3.121-3.122.041-.053a.25.25 0 0 0-.04-.3L12.004 2.58zM3.764 5.91a.46.46 0 1 1 0 .922H2.461a.46.46 0 0 1 0-.922h1.303zm-.416-3.34l1.955 1.954a.46.46 0 1 1-.651.652L2.697 3.221a.46.46 0 0 1 .651-.652zM6.371 2a.46.46 0 0 1 .46.46v1.304a.46.46 0 0 1-.921 0V2.461A.46.46 0 0 1 6.37 2z"/></g></svg>