<svg xmlns="http://www.w3.org/2000/svg" width="16" height="16" viewBox="0 0 16 16"><title>16px / 编辑器 / unordered-list</title><g fill="none" fill-rule="evenodd"><path d="M0 0h16v16H0z"/><path fill="#4B5563" d="M7.032 2.4h6.194c.427 0 .774.358.774.8 0 .442-.347.8-.774.8H7.032a.787.787 0 0 1-.774-.8c0-.442.347-.8.774-.8zm0 4.8h6.194c.427 0 .774.358.774.8 0 .442-.347.8-.774.8H7.032a.787.787 0 0 1-.774-.8c0-.442.347-.8.774-.8zm0 4.8h6.194c.427 0 .774.358.774.8 0 .442-.347.8-.774.8H7.032a.787.787 0 0 1-.774-.8c0-.442.347-.8.774-.8zM2 3.2c0-.331.117-.614.352-.848C2.586 2.117 2.869 2 3.2 2c.331 0 .614.117.848.352.235.234.352.517.352.848 0 .331-.117.614-.352.848A1.156 1.156 0 0 1 3.2 4.4c-.331 0-.614-.117-.848-.352A1.156 1.156 0 0 1 2 3.2zM2 8c0-.331.117-.614.352-.848.234-.235.517-.352.848-.352.331 0 .614.117.848.352.235.234.352.517.352.848 0 .331-.117.614-.352.848A1.156 1.156 0 0 1 3.2 9.2c-.331 0-.614-.117-.848-.352A1.156 1.156 0 0 1 2 8zm0 4.8c0-.331.117-.614.352-.848.234-.235.517-.352.848-.352.331 0 .614.117.848.352.235.234.352.517.352.848 0 .331-.117.614-.352.848A1.156 1.156 0 0 1 3.2 14c-.331 0-.614-.117-.848-.352A1.156 1.156 0 0 1 2 12.8z"/></g></svg>