<svg xmlns="http://www.w3.org/2000/svg" width="16" height="16" viewBox="0 0 16 16"><title>16px / 编辑器 / word-import</title><g fill="none" fill-rule="evenodd"><path d="M0 0h16v16H0z"/><path fill="#4B5563" d="M9.586 1a1 1 0 0 1 .707.293l3.414 3.414a1 1 0 0 1 .293.707V8h-1.5V6.75H9.3a1.05 1.05 0 0 1-1.044-.936L8.25 5.7V2.5H3.5v11H8V15H3a1 1 0 0 1-1-1V2a1 1 0 0 1 1-1h6.586zm2.909 8.505a.7.7 0 0 1 .074.903l-.074.087-.757.755H14.5a.75.75 0 0 1 .102 1.493l-.102.007h-2.762l.757.755a.7.7 0 0 1 .074.903l-.074.087a.7.7 0 0 1-.903.074l-.087-.074-2-2a.7.7 0 0 1-.074-.903l.074-.087 2-2a.7.7 0 0 1 .99 0zM5.429 7.5l.674 2.574.788-2.574h.342l.787 2.574.674-2.574H10l-1.286 4H7.392l-.33-.659-.33.659H5.409l-1.285-4h1.305zM9.75 2.871V5.25h2.379L9.75 2.871z"/></g></svg>